<svg version="1.1" xmlns="http://www.w3.org/2000/svg" xmlns:xlink="http://www.w3.org/1999/xlink" x="0px"
	 y="0px" viewBox="0 0 350 350" style="enable-background:new 0 0 350 350;" xml:space="preserve">
<style type="text/css">
	.st0{clip-path:url(#SVGID_00000018209158667886371000000015090545157704423599_);}
	.st1{fill:#846651;}
	.st2{fill:#D8B69E;}
	.st3{fill:#738657;}
	.st4{fill:#446125;}
	.st5{fill:#92BB6D;}
	.st6{fill:#5A753D;}
	.st7{fill:#888888;}
	.st8{fill:#D6D6D5;}
	.st9{fill:#BDBDBD;}
	.st10{fill:#35785D;}
	.st11{fill:#54A984;}
	.st12{fill:#72C29F;}
	.st13{fill:#E5E5E4;}
	.st14{fill:#BC917B;}
	.st15{fill:#2B2B2B;}
	.st16{fill:#E1C3AF;}
</style>
<g>
	<defs>
		<rect id="SVGID_1_" x="0.8" y="-0.5" width="350" height="350"/>
	</defs>
	<clipPath id="SVGID_00000003106252057131596820000007631721436300637090_">
		<use xlink:href="#SVGID_1_"  style="overflow:visible;"/>
	</clipPath>
	<g style="clip-path:url(#SVGID_00000003106252057131596820000007631721436300637090_);">
		<polygon class="st1" points="356.8,260.9 369.6,249.6 380.6,230.7 379.8,187.8 354.1,213.9 346.5,243.9 		"/>
		<polygon class="st2" points="341.4,224.6 348.1,201.5 376.5,183.1 380.6,186 375,198.3 363.2,208.5 363.2,224.6 358.2,235.5 
			346.5,243.9 		"/>
		<polygon class="st3" points="125.5,288.3 110.6,286 71.3,281.9 123.8,324.3 127.5,336.7 151.5,385.5 183.7,354.1 		"/>
		<polygon class="st4" points="105.4,344.3 122.8,374.7 140.9,382.9 154,364.2 127.5,318 		"/>
		<polygon class="st3" points="271.1,327.5 193.6,441.4 154,364.2 122.8,374.7 63.5,539.8 143.6,588.3 143.9,588.5 276.8,536.2 		
			"/>
		<polygon class="st5" points="243.1,336.1 216.9,381.9 203.5,369.9 183.7,354.1 154,364.2 144.9,577.1 263.4,326.8 244.1,333.4 		
			"/>
		<polygon class="st5" points="71.3,281.9 10.7,362.5 83.8,373.6 112.5,303.4 		"/>
		<polygon class="st3" points="10.7,362.5 10.7,362.5 39.8,420.8 56.2,415.1 110.6,306.3 		"/>
		<polygon class="st6" points="112.5,303.4 39.8,414.7 66.1,412.7 81.3,403.6 127.5,318 		"/>
		<polygon class="st7" points="288.1,168.6 246.4,176.7 249.2,197.5 253.4,222.8 274.5,208.1 		"/>
		<polygon class="st8" points="241.5,149.4 253,180.7 288.1,168.6 		"/>
		<polygon class="st7" points="257.9,249.3 266,255.9 283.1,259.4 298.1,227.5 274.3,235.5 		"/>
		<polygon class="st9" points="274.5,208.1 246.4,208.1 257.9,249.3 298.1,227.5 		"/>
		<polygon class="st9" points="101.3,235.5 66.9,244.9 56.8,271.2 77.6,275 104,252.6 		"/>
		<polygon class="st7" points="96.8,211.5 49,224 66.9,244.9 99.4,251.1 108.9,235.5 		"/>
		<polygon class="st8" points="97,177 87.5,179 80.3,169.8 49,224 97.9,217.3 		"/>
		<polygon class="st7" points="124.1,258.2 56.8,271.2 71.3,281.9 129,272.5 		"/>
		<polygon class="st7" points="247.4,149 247.5,149.4 247.5,149 		"/>
		<polygon class="st3" points="362.2,290.8 333.9,233.6 309.7,264 282.6,320.3 		"/>
		<polygon class="st5" points="257.9,249.3 254.4,282.4 290.9,312.5 309.7,264 		"/>
		<polygon class="st6" points="263.4,326.8 315.1,334.7 346.5,312.5 355.1,286.5 290.9,312.5 263.4,283.3 219.4,237.9 		"/>
		<polygon class="st10" points="341.4,224.6 333.9,233.6 355.1,286.5 315.1,334.7 326.8,335.7 368.9,289.4 		"/>
		<polygon class="st3" points="244.1,333.4 263.4,326.8 253.8,307.2 		"/>
		<rect x="147.2" y="287.6" class="st11" width="0" height="86.6"/>
		<polygon class="st10" points="246.9,307.5 237.2,333.9 236.2,336.1 244.1,333.4 253.8,307.2 250.1,299.7 		"/>
		<polygon class="st11" points="172.1,263 167.3,283.3 122.2,303.4 190.7,351 191.1,351.5 236.2,336.1 		"/>
		<polygon class="st12" points="110,299.8 122.2,303.4 175.5,283.3 99.4,251.1 77.6,275 		"/>
		<polygon class="st10" points="216.9,232 216.8,231.8 216.5,232 		"/>
		<polygon class="st10" points="186.2,344.1 77.6,275 71.3,281.9 183.7,354.1 225.1,407.8 247.7,336.1 		"/>
		<polygon class="st10" points="172.1,263 147.2,245.9 101.3,235.5 99.4,251.1 175.5,283.3 		"/>
		<polygon class="st2" points="260.9,226.6 235.9,80.9 194.5,49 168.2,71.2 113.5,67.6 104,76.3 123.8,114.9 157.7,254.8 207.7,241 
					"/>
		<polygon class="st13" points="194.5,57.3 235.9,80.9 211.2,47.9 190.9,42 186.6,49 		"/>
		<polygon class="st8" points="190.9,42 149.1,29.7 150.1,60.9 172.6,80.9 194.5,57.3 		"/>
		<polygon class="st9" points="109.2,60.9 109.7,65.8 113.1,68.5 172.5,81 172.6,80.9 149.1,29.7 		"/>
		<polygon class="st7" points="166.2,104 168.2,110 146.6,125.7 143.8,118.7 		"/>
		<polygon class="st7" points="197.7,98.7 200,105.9 222.5,109.4 224,104.5 		"/>
		<polygon class="st14" points="146.6,125.7 200.4,180.7 197.7,133.9 177.9,114.8 194.6,111.8 203.3,135.9 211.3,149.2 222.5,109.4 
			200,105.9 194.6,111.8 177.9,114.8 168.2,110 		"/>
		<polygon class="st14" points="128.4,93 113.5,67.6 89,109.4 101.3,123.6 104,161 92.9,148.5 84.8,160.8 71.3,165.8 82.4,198.3 
			93.9,195.4 101.3,196.9 97.9,217.3 101.3,235.5 150.1,254.4 159.1,255 		"/>
		<polygon class="st1" points="93.9,195.4 97.9,217.3 108.8,191.4 		"/>
		<polygon class="st1" points="182.4,248 150.1,254.4 174.7,264 		"/>
		<polygon class="st1" points="80.3,169.8 99.4,182.6 94.4,165.3 		"/>
		<polygon class="st9" points="200.4,180.7 163.8,213.6 186.2,344.1 227.3,381.8 230.4,387.4 229,392.9 225.1,407.8 247.6,423.4 
			232.6,264 211.3,183.1 		"/>
		<polygon class="st13" points="251.9,378.1 271.1,327.5 249.2,197.5 217.5,177 211.3,183.1 247.6,423.4 259.9,399.4 253.6,389.2 
			250.1,384.1 		"/>
		<polygon class="st1" points="227.8,202 193.8,207.8 192.3,200.9 226.3,195.1 		"/>
		<circle class="st15" cx="167.9" cy="143.8" r="6.4"/>
		<circle class="st15" cx="217.4" cy="132.6" r="6.4"/>
		<polygon class="st16" points="194.6,111.8 206.9,129.2 217.5,177 200.4,180.7 191.2,133.5 177.9,114.8 		"/>
		<polygon class="st7" points="64.5,96.4 84.8,160.8 91.3,158.5 105.2,166.5 109.1,115.7 93.2,106.4 113.5,67.6 109.2,60.9 		"/>
		<polygon class="st7" points="217.5,177 200.4,180.7 212,187.8 		"/>
	</g>
</g>
</svg>
